# xmcd CD database file
#
# Track frame offsets:
#	150
#	2162
#	26188
#	61388
#	82725
#	99925
#	139713
#	163888
#	185638
#	217750
#	238463
#	268700
#
# Disc length: 3956 seconds
#
# Revision: 0
# Processed by: cddbd v1.5.2PL0 Copyright (c) Steve Scherf et al.
# Submitted via: CDex 1.51
#
DISCID=a20f720c
DTITLE=Okay Babe - Practice Of Rehearsal
DYEAR=1994
DGENRE=Blues
TTITLE0=Introduction
TTITLE1=Bring It Home To Me
TTITLE2=Holiday
TTITLE3=Southern Lady
TTITLE4=Room To Move
TTITLE5=Mother Earth
TTITLE6=Blues Is A Healer
TTITLE7=Beer Drinking Woman
TTITLE8=Summertime
TTITLE9=L.A. Babe
TTITLE10=It's Not The Carabinieri
TTITLE11=Cold Cold Ground
EXTD=YEAR: 1994
EXTT0=
EXTT1=
EXTT2=
EXTT3=
EXTT4=
EXTT5=
EXTT6=
EXTT7=
EXTT8=
EXTT9=
EXTT10=
EXTT11=
PLAYORDER=
